<?xml version="1.0" encoding="iso-8859-1"?>
<!-- Uploaded to: SVG Repo, www.svgrepo.com, Generator: SVG Repo Mixer Tools -->
<svg fill="#000000" height="800px" width="800px" version="1.1" id="Layer_1" xmlns="http://www.w3.org/2000/svg" xmlns:xlink="http://www.w3.org/1999/xlink" 
	 viewBox="0 0 512 512" xml:space="preserve">
<g>
	<g>
		<polygon points="70.78,291.285 0,362.065 82.347,388.648 109.478,470.223 179.598,400.103 		"/>
	</g>
</g>
<g>
	<g>
		<polygon points="441.245,290.787 331.951,400.08 402.049,470.178 429.448,388.396 512,361.542 		"/>
	</g>
</g>
<g>
	<g>
		<path d="M266.446,223.311c-0.448-1.668-1.109-3.137-1.979-4.407c-0.871-1.27-1.979-2.29-3.324-3.062
			c-1.344-0.772-2.913-1.158-4.706-1.158c-1.842,0-3.424,0.4-4.743,1.195c-1.321,0.797-2.417,1.856-3.287,3.175
			c-0.871,1.321-1.519,2.814-1.943,4.482c-0.423,1.669-0.635,3.375-0.635,5.116c0,1.794,0.212,3.523,0.635,5.192
			c0.422,1.665,1.083,3.147,1.979,4.441c0.896,1.296,2.017,2.342,3.362,3.138c1.344,0.797,2.913,1.195,4.706,1.195
			c1.842,0,3.436-0.411,4.782-1.232c1.344-0.822,2.439-1.892,3.286-3.212c0.847-1.318,1.482-2.826,1.905-4.519
			c0.422-1.692,0.635-3.41,0.635-5.154C267.119,226.709,266.896,224.979,266.446,223.311z"/>
	</g>
</g>
<g>
	<g>
		<path d="M425.762,79.263C379.438,32.939,306.194,29.55,255.933,69.092C205.67,29.55,132.426,32.94,86.104,79.263
			c-24.211,24.211-37.546,56.401-37.546,90.64c0,34.239,13.334,66.43,37.546,90.641l169.829,169.829l169.829-169.829
			c24.212-24.21,37.546-56.401,37.546-90.64S449.973,103.474,425.762,79.263z M153.335,234.347l14.419-6.724l20.902,17.782
			l-0.119-27.473l14.352-6.693l22.413,48.066l-13.201,6.156l-11.807-25.319l0.246,21.561l-7.041,3.284l-16.358-14.048l11.807,25.319
			l-13.201,6.155L153.335,234.347z M308.902,331.593c-15.274-10.677-33.403-16.45-52.428-16.45
			c-19.289,0-37.657,5.934-53.062,16.897l-23.166-23.166c21.701-16.942,48.259-26.127,76.228-26.127
			c27.709,0,54.027,9.02,75.615,25.659L308.902,331.593z M231.04,228.501c0-3.485,0.635-6.846,1.905-10.085
			c1.27-3.236,3.049-6.088,5.341-8.553c2.29-2.465,4.991-4.432,8.104-5.9c3.112-1.469,6.536-2.204,10.271-2.204
			c3.784,0,7.233,0.773,10.346,2.315c3.112,1.544,5.776,3.585,7.992,6.125c2.215,2.54,3.922,5.428,5.116,8.665
			c1.195,3.237,1.794,6.549,1.794,9.935c0,3.487-0.635,6.835-1.905,10.047c-1.27,3.211-3.026,6.05-5.266,8.516
			s-4.929,4.445-8.067,5.938c-3.137,1.493-6.573,2.241-10.308,2.241c-3.785,0-7.235-0.771-10.346-2.315
			c-3.113-1.543-5.777-3.572-7.993-6.088c-2.217-2.514-3.935-5.389-5.154-8.627C231.649,235.273,231.04,231.937,231.04,228.501z
			 M337.199,282.414l-13.201-6.156l11.807-25.319l-16.358,14.049l-7.04-3.284l0.246-21.561l-11.807,25.319l-13.201-6.156
			l22.413-48.066l14.419,6.724l-0.186,27.441l20.969-17.75l14.352,6.693L337.199,282.414z M405.85,234.496
			c-85.641-74.292-213.895-74.118-299.34,0.517c-7.571-8.153-13.57-17.402-17.848-27.382
			C135.57,168,194.356,146.392,256.473,146.392c61.769,0,120.246,21.367,167.025,60.577
			C419.294,216.991,413.361,226.289,405.85,234.496z"/>
	</g>
</g>
</svg>